<?xml version="1.0" standalone="no"?>
<!DOCTYPE svg PUBLIC "-//W3C//DTD SVG 20010904//EN"
 "http://www.w3.org/TR/2001/REC-SVG-20010904/DTD/svg10.dtd">
<svg version="1.0" xmlns="http://www.w3.org/2000/svg"
 width="2210.000000pt" height="920.000000pt" viewBox="0 0 2210.000000 920.000000"
 preserveAspectRatio="xMidYMid meet">
<metadata>
Created by potrace 1.15, written by Peter Selinger 2001-2017
</metadata>
<g transform="translate(0.000000,920.000000) scale(0.100000,-0.100000)"
fill="#F7CB2E" stroke="none">
<path d="M1599 8561 c-365 -68 -667 -306 -790 -625 -44 -115 -61 -205 -61
-331 -2 -476 391 -891 894 -946 233 -26 511 30 675 134 l43 27 -90 180 -90
181 -44 -26 c-218 -127 -542 -109 -732 43 -66 52 -148 174 -174 258 -27 88
-27 219 0 305 79 256 301 398 603 387 122 -5 236 -35 309 -84 l38 -24 90 180
90 180 -53 35 c-63 42 -184 87 -293 110 -89 19 -345 29 -415 16z"/>
<path d="M3888 8560 c-236 -43 -434 -168 -590 -374 -74 -98 -121 -197 -155
-325 -21 -80 -26 -120 -26 -241 -1 -157 7 -213 54 -356 71 -218 255 -426 465
-525 129 -61 233 -83 404 -83 162 -1 256 15 373 65 205 86 402 283 488 487 97
234 105 518 19 753 -101 277 -345 503 -626 580 -88 24 -320 35 -406 19z m303
-416 c76 -23 131 -58 185 -117 234 -261 173 -779 -109 -917 -123 -60 -300 -61
-429 -3 -81 36 -187 149 -218 229 -70 188 -64 408 17 569 62 123 146 199 259
235 76 24 219 26 295 4z"/>
<path d="M5910 8533 c-1 -5 -38 -420 -84 -923 -45 -503 -81 -918 -79 -922 6
-11 411 -10 417 0 3 5 24 252 48 550 23 298 45 542 48 542 3 0 49 -125 102
-277 53 -153 138 -396 189 -540 l91 -263 128 0 128 0 34 98 c19 53 104 296
189 539 85 244 156 443 159 443 4 0 25 -244 49 -542 24 -299 45 -546 48 -550
6 -10 411 -10 416 0 3 5 -155 1804 -163 1850 0 1 -101 2 -224 2 l-224 0 -46
-117 c-25 -65 -117 -305 -205 -533 -143 -371 -160 -412 -170 -390 -6 14 -99
252 -205 530 l-194 505 -226 3 c-124 1 -226 -1 -226 -5z"/>
<path d="M8622 7863 c4 -660 4 -680 25 -755 31 -111 69 -180 135 -253 109
-118 240 -176 446 -196 150 -15 319 0 431 37 198 66 325 203 384 413 21 74 21
96 25 754 l3 677 -213 -2 -213 -3 -5 -625 c-4 -440 -9 -635 -17 -658 -26 -73
-61 -118 -115 -148 -50 -27 -60 -29 -163 -29 -103 0 -113 2 -163 29 -54 30
-89 75 -115 148 -8 23 -13 218 -17 658 l-5 625 -213 3 -213 2 3 -677z"/>
<path d="M10992 7613 l3 -928 210 0 210 0 5 569 5 569 354 -554 c195 -305 361
-562 369 -572 14 -16 35 -17 221 -15 l206 3 3 928 2 927 -212 -2 -213 -3 -5
-568 -5 -569 -365 571 -365 571 -213 0 -212 0 2 -927z"/>
<path d="M13522 7613 l3 -928 210 0 210 0 3 928 2 927 -215 0 -215 0 2 -927z"/>
<path d="M14892 7613 l3 -928 240 -3 c400 -5 554 16 720 99 240 120 417 338
480 593 20 80 25 123 25 232 0 144 -13 226 -55 343 -77 211 -260 407 -474 503
-163 74 -263 88 -644 88 l-297 0 2 -927z m578 537 c325 -42 520 -405 401 -746
-64 -182 -229 -312 -421 -334 -47 -6 -95 -10 -107 -10 l-23 0 0 550 0 550 38
0 c20 0 71 -5 112 -10z"/>
<path d="M17775 8530 c-7 -12 -745 -1839 -745 -1846 0 -2 102 -3 227 -2 l228
3 66 180 67 180 355 3 355 2 15 -42 c8 -24 38 -107 67 -185 l52 -143 224 0
c154 0 224 3 224 11 0 6 -165 419 -366 917 -202 499 -368 913 -371 920 -6 15
-388 18 -398 2z m304 -840 l98 -255 -200 -3 c-110 -1 -202 -1 -204 1 -2 2 37
109 86 238 117 307 113 296 117 284 2 -5 49 -125 103 -265z"/>
<path d="M19665 8528 c-3 -7 -4 -425 -3 -928 l3 -915 325 1 c271 0 339 3 410
18 185 39 337 121 472 257 183 184 261 379 261 649 0 264 -74 454 -249 640
-116 123 -279 219 -446 261 -75 20 -117 22 -425 26 -282 4 -344 3 -348 -9z
m575 -378 c215 -27 379 -189 426 -419 46 -230 -43 -466 -221 -582 -75 -49
-155 -74 -267 -84 l-88 -7 0 551 0 551 38 0 c20 0 71 -5 112 -10z"/>
<path d="M16303 5917 c-116 -249 -210 -454 -208 -455 3 -4 916 287 924 293 3
4 -486 602 -498 609 -3 3 -101 -199 -218 -447z m340 16 c37 -45 64 -84 60 -86
-13 -8 -266 -87 -268 -85 -6 9 127 269 134 262 4 -5 38 -46 74 -91z"/>
<path d="M2885 6000 c-413 -29 -833 -168 -1160 -386 -310 -205 -620 -521 -819
-834 -173 -272 -308 -650 -362 -1012 -34 -229 -29 -620 12 -883 106 -684 456
-1266 1015 -1686 316 -238 723 -396 1159 -451 135 -17 582 -17 710 0 465 62
863 227 1215 506 648 513 995 1251 995 2115 0 744 -241 1351 -740 1865 -418
430 -905 679 -1465 750 -154 19 -407 27 -560 16z m472 -1136 c314 -54 569
-220 746 -486 248 -372 340 -816 271 -1308 -50 -356 -199 -677 -415 -892 -223
-222 -489 -320 -873 -320 -385 0 -664 111 -921 369 -89 88 -200 252 -244 358
-75 179 -128 421 -140 631 -24 458 65 823 280 1144 179 267 410 428 712 495
161 36 406 40 584 9z"/>
<path d="M14030 6000 c-597 -43 -1121 -279 -1559 -705 -159 -154 -270 -286
-382 -455 -374 -559 -508 -1261 -382 -2005 118 -703 518 -1315 1123 -1719 197
-132 515 -264 775 -321 216 -48 320 -58 605 -59 365 -1 567 27 845 119 376
124 668 306 966 604 458 459 699 980 760 1644 17 182 6 533 -21 711 -114 750
-529 1385 -1186 1816 -191 126 -515 260 -756 314 -228 51 -544 73 -788 56z
m340 -1120 c211 -18 404 -81 564 -184 184 -118 378 -377 485 -648 177 -450
151 -1081 -62 -1503 -219 -435 -535 -651 -1000 -684 -295 -21 -543 25 -757
140 -209 112 -419 332 -520 544 -61 128 -127 374 -150 555 -15 122 -12 427 5
547 17 122 55 275 95 384 84 230 265 488 434 619 237 182 548 261 906 230z"/>
<path d="M5967 5914 c-4 -4 -7 -1152 -7 -2551 l0 -2543 585 0 585 0 2 1000 3
1000 771 -998 771 -997 736 -3 c406 -1 737 0 737 3 0 3 -392 476 -871 1051
-479 575 -869 1047 -867 1049 2 2 46 19 98 40 345 132 636 398 790 719 193
405 197 997 9 1415 -16 36 -60 110 -96 165 -191 288 -538 513 -918 596 -244
53 -240 53 -1315 57 -553 3 -1008 1 -1013 -3z m1688 -950 c305 -50 454 -162
532 -398 38 -116 44 -317 14 -435 -87 -345 -319 -471 -868 -471 l-203 0 0 666
0 666 218 -7 c119 -3 258 -13 307 -21z"/>
<path d="M10190 3370 l0 -2550 580 0 580 0 -2 2548 -3 2547 -577 3 -578 2 0
-2550z"/>
<path d="M17105 5908 c-3 -7 -4 -1154 -3 -2548 l3 -2535 583 -3 582 -2 0 1582
c1 1417 2 1581 16 1563 8 -11 465 -723 1016 -1583 l1001 -1562 578 0 579 0 0
2550 0 2550 -577 -2 -578 -3 -3 -1577 c-1 -868 -5 -1578 -10 -1577 -4 0 -455
700 -1002 1556 -547 856 -1003 1566 -1013 1579 l-18 24 -575 0 c-451 0 -576
-3 -579 -12z"/>
</g>
</svg>
